<?xml version="1.0" encoding="UTF-8"?>
<!DOCTYPE svg PUBLIC "-//W3C//DTD SVG 1.1//EN" "http://www.w3.org/Graphics/SVG/1.1/DTD/svg11.dtd">
<!-- Creator: CorelDRAW 2020 (64-Bit) -->
<svg xmlns="http://www.w3.org/2000/svg" xml:space="preserve" width="30px" height="30px" version="1.1" style="shape-rendering:geometricPrecision; text-rendering:geometricPrecision; image-rendering:optimizeQuality; fill-rule:evenodd; clip-rule:evenodd"
viewBox="0 0 7.46 7.46"
 xmlns:xlink="http://www.w3.org/1999/xlink"
 xmlns:xodm="http://www.corel.com/coreldraw/odm/2003">
 <defs>
  <style type="text/css">
   <![CDATA[
    .fil0 {fill:white}
   ]]>
  </style>
 </defs>
 <g id="Capa_x0020_1">
  <metadata id="CorelCorpID_0Corel-Layer"/>
  <path class="fil0" d="M3.73 0c2.06,0 3.73,1.67 3.73,3.73 0,2.06 -1.67,3.73 -3.73,3.73 -2.06,0 -3.73,-1.67 -3.73,-3.73 0,-2.06 1.67,-3.73 3.73,-3.73zm1.21 4.04l0.14 -0.94 -0.9 0 0 -0.61c0,-0.25 0.13,-0.5 0.53,-0.5l0.41 0 0 -0.8c0,0 -0.37,-0.06 -0.73,-0.06 -0.74,0 -1.22,0.45 -1.22,1.26l0 0.71 -0.82 0 0 0.94 0.82 0 0 2.26c0.16,0.02 0.33,0.04 0.51,0.04 0.17,0 0.34,-0.02 0.5,-0.04l0 -2.26 0.76 0z"/>
 </g>
</svg>
