<?xml version="1.0" encoding="UTF-8"?>
<!DOCTYPE svg PUBLIC "-//W3C//DTD SVG 1.1//EN" "http://www.w3.org/Graphics/SVG/1.1/DTD/svg11.dtd">
<!-- Creator: CorelDRAW 2020 (64-Bit) -->
<svg xmlns="http://www.w3.org/2000/svg" xml:space="preserve" width="30px" height="30px" version="1.1" style="shape-rendering:geometricPrecision; text-rendering:geometricPrecision; image-rendering:optimizeQuality; fill-rule:evenodd; clip-rule:evenodd"
viewBox="0 0 29.02 29.02"
 xmlns:xlink="http://www.w3.org/1999/xlink"
 xmlns:xodm="http://www.corel.com/coreldraw/odm/2003">
 <defs>
  <style type="text/css">
   <![CDATA[
    .fil0 {fill:white}
   ]]>
  </style>
 </defs>
 <g id="Capa_x0020_1">
  <metadata id="CorelCorpID_0Corel-Layer"/>
  <path class="fil0" d="M14.51 0c8.01,0 14.51,6.5 14.51,14.51 0,8.01 -6.5,14.51 -14.51,14.51 -8.01,0 -14.51,-6.5 -14.51,-14.51 0,-8.01 6.5,-14.51 14.51,-14.51zm4.5 9.04c-0.55,0 -0.99,0.45 -0.99,1 0,0.55 0.44,1 0.99,1 0.55,0 1,-0.45 1,-1 0,-0.55 -0.45,-1 -1,-1zm-4.43 8.15c-1.48,0 -2.68,-1.2 -2.68,-2.68 0,-1.48 1.2,-2.68 2.68,-2.68 1.48,0 2.68,1.2 2.68,2.68 0,1.48 -1.2,2.68 -2.68,2.68zm0 -6.87c-2.31,0 -4.19,1.88 -4.19,4.19 0,2.31 1.88,4.19 4.19,4.19 2.31,0 4.19,-1.88 4.19,-4.19 0,-2.31 -1.88,-4.19 -4.19,-4.19zm-3.47 -2.72c-1.93,0 -3.51,1.58 -3.51,3.51l0 6.79c0,1.94 1.58,3.51 3.51,3.51l6.79 0c1.94,0 3.51,-1.57 3.51,-3.51l0 -6.79c0,-1.93 -1.57,-3.51 -3.51,-3.51l-6.79 0zm6.79 15.42l-6.79 0c-2.81,0 -5.11,-2.3 -5.11,-5.12l0 -6.79c0,-2.82 2.3,-5.11 5.11,-5.11l6.79 0c2.82,0 5.11,2.29 5.11,5.11l0 6.79c0,2.82 -2.29,5.12 -5.11,5.12z"/>
 </g>
</svg>
