<svg width="80" height="80" viewBox="0 0 80 80" fill="none" xmlns="http://www.w3.org/2000/svg">
<path d="M40 3.19995C19.7072 3.19995 3.2 19.7072 3.2 40C3.2 60.2928 19.7072 76.7999 40 76.7999C60.2928 76.7999 76.8 60.2928 76.8 40C76.8 19.7072 60.2928 3.19995 40 3.19995ZM57.9792 32.8384C57.9952 33.216 58.0048 33.6 58.0048 33.9855C58.0048 45.6944 49.088 59.2 32.7856 59.2C27.7808 59.2 23.12 57.7328 19.2 55.2176C19.8928 55.3008 20.5952 55.3408 21.3136 55.3408C25.4672 55.3408 29.2896 53.9263 32.32 51.5487C28.4416 51.4783 25.1712 48.9104 24.04 45.3936C24.5824 45.4976 25.1376 45.5536 25.7104 45.5536C26.5184 45.5536 27.3024 45.4464 28.0432 45.2416C23.992 44.424 20.9376 40.8464 20.9376 36.5504C20.9376 36.512 20.9376 36.4752 20.9376 36.4384C22.1328 37.1024 23.4976 37.5024 24.952 37.5488C22.5712 35.9568 21.0096 33.2464 21.0096 30.1712C21.0096 28.5472 21.4448 27.0256 22.208 25.7136C26.5808 31.0751 33.112 34.6032 40.4768 34.9743C40.3248 34.3248 40.2448 33.6496 40.2448 32.9552C40.2448 28.0608 44.2128 24.0928 49.1088 24.0928C51.6576 24.0928 53.96 25.1679 55.576 26.8911C57.5936 26.4944 59.4928 25.7568 61.2048 24.7424C60.544 26.8096 59.1376 28.5472 57.3056 29.6448C59.1008 29.4272 60.8064 28.9536 62.3984 28.248C61.2112 30.0256 59.7088 31.5888 57.9792 32.8384Z" fill="white"/>
</svg>
